<svg viewBox="0 0 353.01 68.02" xmlns="http://www.w3.org/2000/svg" data-name="图层 1" id="_图层_1">
  <defs>
    <style>
      .cls-1 {
        fill: #000;
        stroke-width: 0px;
      }
    </style>
  </defs>
  <g>
    <g>
      <path d="M210.73,43.33c-.93-.26-1.53-.79-1.9-1.72h0s-13.49-38.91-13.49-38.91h-11.4l-.5,1.35s1.29-.11,1.94.11c1.23.41,1.43,1.58.86,3.55h0l-13.81,37.06h2.22l7.58-20.35h13.66l7.05,20.35h9.15l.5-1.35s-1.14.11-1.86-.09ZM183.05,22.2l6.25-16.78,5.82,16.78h-12.07Z" class="cls-1"></path>
      <path d="M87.65,14.92C82.94,3.57,69.75-1.73,58.19,3.07c-11.56,4.8-17.1,17.89-12.39,29.23,4.71,11.34,17.9,16.64,29.46,11.84,11.56-4.8,17.1-17.89,12.39-29.23ZM70.37,42.74c-10.29.69-17.53-8.09-18.96-18.33-1.53-10.96,4.26-19.7,13.1-20.04,9-.34,16.12,6.94,17.75,19,1.61,11.93-4.33,18.86-11.9,19.37Z" class="cls-1"></path>
      <path d="M120.5,39.4c-2.21,2.2-4.68,3.17-9,3.17-2.56,0-6.55-.17-10.31-.45v-19.92h15.2v-2.22h-15.2V4.91h16.87v-2.22h-23.82v42.07h25.12l1.71-5.37h-.58Z" class="cls-1"></path>
      <path d="M32.29,28.24c0-3.68-1.5-4.67-3.25-4.72-.15,0-.69,0-.99.02l.5-1.35h10.69v21.29c-2.63.76-8.18,2.49-14.41,2.49C9.06,45.98,0,38.51,0,23.5,0,14.44,4.7,7.31,12.38,4.06c3.74-1.66,7.82-2.76,13.84-2.76,2.72,0,7.49.49,11.93,1.39l-.03,2.87c-3.92-1.85-9.85-2.58-15.05-1.66-9.97,1.76-15.5,9.4-15.5,19.6,0,12.04,8.42,19.78,18.45,19.78,4.23,0,5.6-1.02,5.99-2.64.23-.93.29-1.88.29-3.05v-9.35Z" class="cls-1"></path>
      <path d="M153.47,39.4c-2.21,2.2-4.68,3.17-9,3.17-2.56,0-6.55-.17-10.31-.45V2.7h-10.69l-.5,1.35c.31-.03.84-.03.99-.03,1.75.05,3.25,1.04,3.25,4.72v36.03h25.12l1.71-5.37h-.57Z" class="cls-1"></path>
      <path d="M168.4,43.44c-1.75-.04-3.25-1.04-3.25-4.72V2.7h-10.69l-.5,1.35c.31-.03.84-.03.99-.03,1.75.05,3.25,1.04,3.25,4.72v36.03h10.69l.5-1.35c-.31.02-.84.03-.99.02Z" class="cls-1"></path>
    </g>
    <g>
      <path d="M72.81,57.86c-1.13-2.21-3.64-2.19-4.71-1.23-1.12,1.01-1.29,2.62,2.29,3.37,3.53.74,4,3.23,2.96,4.84-1.53,2.36-5.19,2.47-7.44.32l.58-.79c2.73,2.62,4.93,1.62,5.55.09.52-1.29-.14-2.32-2.74-2.82-4.24-.82-3.72-3.86-2.25-5.25,1.54-1.47,4.74-1.43,6.29.61l-.52.85Z" class="cls-1"></path>
      <path d="M78.67,66.4h-2.3v-9.41c0-.82-.16-.99-.9-.99l.13-.32h2.29v9.44c0,.79.16.96.91.96l-.13.32Z" class="cls-1"></path>
      <path d="M88.54,66.4l-6.51-8.64v8.64h-.99v-9.21c0-1.01-.13-1.2-.76-1.2h-.3l.13-.32h2.35l6.24,8.37v-8.37h.99v10.72h-1.15Z" class="cls-1"></path>
      <path d="M100.99,65.03l.02,1.01c-1.07.55-2.85.68-3.52.68-3.39,0-5.85-1.95-5.85-5.67s2.71-5.67,6.24-5.67c.66,0,2.05.13,3.12.68l-.02,1.04c-.95-.79-2.19-1.21-3.47-1.09-3.11.3-3.91,2.44-3.91,5.04s.85,4.74,3.59,5.04c1.28.14,2.84-.27,3.78-1.06Z" class="cls-1"></path>
      <path d="M109.2,66.4h-6.04v-10.72h5.74v.73h-4.07v3.72h3.64v.71h-3.64v4.89c.91.08,1.86.11,2.47.11,1.13,0,1.72-.32,2.18-.8h.13l-.41,1.37Z" class="cls-1"></path>
      <path d="M116.37,66.4v-8.76l-1.78,1.61-.41-.52,3.33-3.04h.52v10.72h-1.66Z" class="cls-1"></path>
      <path d="M121.48,65.26c.6.82,1.62.9,2.3.77,2.77-.5,2.38-4.76,2.38-4.76-.32.6-1.28,1.02-2.36,1.02-1.42,0-3.5-.71-3.5-3.42,0-1.58,1.29-3.52,3.69-3.52,3.33,0,4.04,2.87,3.86,6.01-.2,3.75-1.91,5.23-4.43,5.23-1.15,0-1.94-.55-1.94-.55v-.79ZM126.24,59.02c0-1.66-.68-3.11-2.24-3.11-1.42,0-2.14,1.21-2.14,3.11s.98,2.79,2.11,2.79,2.27-.74,2.27-2.79Z" class="cls-1"></path>
      <path d="M130.94,65.26c.6.82,1.62.9,2.3.77,2.77-.5,2.38-4.76,2.38-4.76-.32.6-1.28,1.02-2.36,1.02-1.42,0-3.5-.71-3.5-3.42,0-1.58,1.29-3.52,3.69-3.52,3.33,0,4.04,2.87,3.86,6.01-.2,3.75-1.91,5.23-4.43,5.23-1.15,0-1.94-.55-1.94-.55v-.79ZM135.7,59.02c0-1.66-.68-3.11-2.24-3.11-1.42,0-2.14,1.21-2.14,3.11s.98,2.79,2.11,2.79,2.27-.74,2.27-2.79Z" class="cls-1"></path>
      <path d="M145.79,57.02h-4.65l-.44,2.71c3.36-1.23,6.27.63,5.97,3.63-.2,2-1.88,3.22-4.26,3.36-1.43.08-2.85-.54-3.44-1.28l.57-.91c.41.49,1.83,2.06,3.67,1.43,2-.69,2.52-4.22.35-5.39-1.13-.6-2.51-.63-3.75-.02l.77-4.87h5.52l-.32,1.34Z" class="cls-1"></path>
    </g>
  </g>
  <g>
    <g>
      <g>
        <path d="M278.91,0c.89,0,15.74-.62,15.74,11.34,0,5.7-6.25,10.1-9.28,10.79,0,0,13.47.82,12.23,13.33-.76,7.9-6.05,13.54-17.18,13.54-8.93,0-14.43-4.54-14.91-5.36l2.41-3.99c3.51,4.81,7.49,6.87,12.44,7.08,4.47.21,8.93-2.68,10.31-9.28,1.44-6.87-3.02-13.33-10.31-13.68h-4.74v-2.2c6.67,0,12.03-2.82,12.03-10.17,0-2.2-.89-9.21-8.93-8.87-5.09.41-8.45,4.33-9,7.49l-2.41-3.16S271.21.49,278.91,0Z" class="cls-1"></path>
        <path d="M334.67,24.71c0,16.41-8.03,24.3-17.57,24.3s-17.43-7.89-17.43-24.3,7.96-24.71,17.43-24.71,17.57,8.17,17.57,24.71ZM307.21,24.37c0,16.2,4.19,22.38,9.95,22.38s10.16-6.18,10.16-22.38-4.32-21.83-10.16-21.83-9.95,6.04-9.95,21.83Z" class="cls-1"></path>
      </g>
      <g>
        <path d="M341.95,12.55c0,1.46-.89,2.25-2.31,2.25-1.55,0-2.84-.68-2.84-4.28v-4.96h-1.65v-.78h1.65v-2.65l2.01-1.19v3.84h2.86v.78h-2.86v5.79c0,2.16.3,2.88.85,2.88s1.06-.38,1.06-1.67h1.23Z" class="cls-1"></path>
        <path d="M353.01,9.45v5.38h-2.06v-5.72c0-1.61-.66-3.56-2.56-3.5-2.37.06-2.61,2.42-2.63,4.05v5.17h-2.03V2.12c0-1.53-.17-1.7-1.06-1.7l.23-.42h2.86v6.29c.61-.85,1.59-1.44,3.01-1.48,3.28-.08,4.24,1.55,4.24,4.64Z" class="cls-1"></path>
      </g>
    </g>
    <g>
      <path d="M275.93,64l-.13.37h-2.31l-1.76-5.35h-3.52l-1.89,5.35h-.8l3.51-9.95c.15-.53.1-.85-.22-.95-.17-.07-.48-.07-.48-.07l.12-.33h3.12l3.42,10.45c.08.25.25.4.48.47.18.05.47.02.47.02ZM270.03,53.8l-1.6,4.49h3.06l-1.46-4.49Z" class="cls-1"></path>
      <path d="M284.45,59.57v4.8h-1.58v-4.8c0-1.81-.65-2.63-2.01-2.51-1,.08-2.09,1.21-2.09,3.14v4.17h-1.56v-6.21c0-.91-.13-1.1-.86-1.1l.13-.33h2.29v1.01c.33-.43,1.03-1.13,2.23-1.2,2.13-.12,3.46.63,3.46,3.02Z" class="cls-1"></path>
      <path d="M293.91,59.57v4.8h-1.58v-4.8c0-1.81-.65-2.63-2.01-2.51-1,.08-2.09,1.21-2.09,3.14v4.17h-1.56v-6.21c0-.91-.13-1.1-.86-1.1l.13-.33h2.29v1.01c.33-.43,1.03-1.13,2.23-1.2,2.13-.12,3.46.63,3.46,3.02Z" class="cls-1"></path>
      <path d="M298.55,64.37h-2.34v-6.21c0-.91-.15-1.1-.95-1.1l.1-.33h2.43v6.33c0,.8.17.98.88.98l-.12.33ZM297.82,54.63c0,.55-.43,1-.95,1s-.96-.45-.96-1,.43-1,.96-1,.95.43.95,1Z" class="cls-1"></path>
      <path d="M303.42,64.37v-.02l-3.32-6.95c-.25-.35-.52-.37-1.01-.37l.13-.32h2.46l2.71,5.88,2.94-5.88h.85l-3.84,7.64h-.91Z" class="cls-1"></path>
      <path d="M309.78,60.2c0,.42.18,1.15.35,1.53.78,1.84,2.61,2.64,4.17,2.08.68-.25.96-.7,1.45-1.38v.98c-.78.71-1.84,1.18-3.04,1.18-2.71,0-4.35-1.83-4.35-4.05s1.64-4.01,4-4.01,3.66,1.48,3.66,3.64v.03h-6.23ZM309.8,59.7h4.62c-.03-1.78-1.16-2.91-2.71-2.63-1.36.3-1.89,1.26-1.91,2.63Z" class="cls-1"></path>
      <path d="M319.27,58.47c.35-.68,1.43-1.94,2.79-1.94l-.1,1.38s-2.29-.22-2.69,1.6v4.87h-1.41v-6.21c0-.91-.15-1.1-.96-1.1l.1-.33h2.28v1.74Z" class="cls-1"></path>
      <path d="M328.23,58.49c-.81-1.56-2.63-1.79-3.44-.98-.58.58-.53,1.7,1.86,2.24,2.79.65,2.74,2.68,2.09,3.69-1.08,1.68-4.14,1.64-5.72.12l.66-.71c1.98,2.06,3.64.95,4.01.17.35-.75-.1-1.63-1.81-2.01-3.21-.71-3.21-2.61-2.08-3.77,1.11-1.05,3.89-1.08,4.99.55l-.57.71Z" class="cls-1"></path>
      <path d="M336.89,63.41c0,.58.27.7.73.7l-.08.27h-2.14v-1c0,.17-.6.85-1.69,1.1-1.3.32-3.42-.1-3.42-2.16,0-1.01.9-2.69,5.12-2.69v-.3c0-1.69-.86-2.36-1.93-2.36-.85,0-1.84.61-2.49,1.11v-.88c1.03-.42,1.89-.63,2.61-.68,2.46-.18,3.31,1.46,3.31,2.84v4.06ZM335.4,60.03c-2.71,0-3.66,1.3-3.66,2.24s.63,1.64,1.56,1.64c1.45,0,2.09-.86,2.09-1.91v-1.98Z" class="cls-1"></path>
      <path d="M340.7,58.47c.35-.68,1.43-1.94,2.79-1.94l-.1,1.38s-2.29-.22-2.69,1.6v4.87h-1.41v-6.21c0-.91-.15-1.1-.96-1.1l.1-.33h2.28v1.74Z" class="cls-1"></path>
      <path d="M353.01,56.72c.08,0-4,8.44-4.52,9.51-.66,1.33-1.36,1.79-2.24,1.79-1.35,0-1.88-.68-1.88-1.63h1.2s.05,1.06.65,1.06c.75,0,1.06-1.01,1.33-1.56l.81-1.65-4.14-7.54h1.94l3.06,5.77,2.79-5.75h1Z" class="cls-1"></path>
    </g>
  </g>
  <rect height="65.42" width=".72" y="1.3" x="237" class="cls-1"></rect>
</svg>